<?xml version="1.0" encoding="utf-8"?>
<!-- Generator: Adobe Illustrator 19.0.0, SVG Export Plug-In . SVG Version: 6.00 Build 0)  -->
<svg version="1.1" id="Layer_1" xmlns="http://www.w3.org/2000/svg" xmlns:xlink="http://www.w3.org/1999/xlink" x="0px" y="0px"
	 viewBox="-289 279 220 44" style="enable-background:new -289 279 220 44;" xml:space="preserve">
<style type="text/css">
	.st0{fill:#F6F6F6;}
</style>
<g id="XMLID_154_">
	<g id="XMLID_17_">
		<g>
			<path id="XMLID_315_" class="st0" d="M-251.3,304.1h6.2c0.1,0,0.3,0.1,0.4,0.2c0.1,0.1,0.2,0.2,0.2,0.4v1.4
				c0,0.1-0.1,0.3-0.2,0.4c-0.1,0.1-0.2,0.2-0.4,0.2h-8.3c-0.1,0-0.3-0.1-0.4-0.2s-0.2-0.2-0.2-0.4v-12.6c0-0.1,0.1-0.3,0.2-0.4
				s0.2-0.2,0.4-0.2h8.1c0.1,0,0.3,0.1,0.4,0.2s0.2,0.2,0.2,0.4v1.4c0,0.1-0.1,0.3-0.2,0.4c-0.1,0.1-0.2,0.2-0.4,0.2h-6.1v3.1h5.7
				c0.1,0,0.3,0.1,0.4,0.2c0.1,0.1,0.2,0.2,0.2,0.4v1.4c0,0.1-0.1,0.3-0.2,0.4c-0.1,0.1-0.2,0.2-0.4,0.2h-5.7V304.1z"/>
			<path id="XMLID_313_" class="st0" d="M-238.7,303.8c0.2,0.2,0.6,0.3,1.1,0.3h1.2c0.1,0,0.3,0.1,0.4,0.2c0.1,0.1,0.2,0.2,0.2,0.4
				v1.3c0,0.1-0.1,0.3-0.2,0.4c-0.1,0.1-0.2,0.2-0.4,0.2h-1.4c-1.2,0-2.1-0.3-2.7-0.9c-0.6-0.6-0.9-1.5-0.9-2.7v-4.2h-1.2
				c-0.1,0-0.3-0.1-0.4-0.2c-0.1-0.1-0.2-0.2-0.2-0.4v-1.3c0-0.1,0-0.3,0.2-0.4c0.1-0.1,0.2-0.2,0.4-0.2h1.2v-3.2
				c0-0.1,0.1-0.3,0.2-0.4s0.2-0.2,0.4-0.2h1.4c0.1,0,0.3,0.1,0.4,0.2c0.1,0.1,0.2,0.2,0.2,0.4v3.2h2.4c0.1,0,0.3,0.1,0.4,0.2
				c0.1,0.1,0.2,0.2,0.2,0.4v1.3c0,0.1-0.1,0.3-0.2,0.4s-0.2,0.2-0.4,0.2h-2.4v4.1C-239,303.3-238.9,303.6-238.7,303.8z"/>
			<path id="XMLID_311_" class="st0" d="M-225,306.4c-0.1,0.1-0.2,0.2-0.4,0.2h-1.4c-0.1,0-0.3-0.1-0.4-0.2
				c-0.1-0.1-0.2-0.2-0.2-0.4v-4.9c0-0.8-0.2-1.4-0.5-1.9s-0.9-0.7-1.6-0.7c-0.7,0-1.2,0.2-1.6,0.7c-0.4,0.5-0.6,1.1-0.6,1.9v4.9
				c0,0.1-0.1,0.3-0.2,0.4s-0.2,0.2-0.4,0.2h-1.4c-0.1,0-0.3-0.1-0.4-0.2c-0.1-0.1-0.2-0.2-0.2-0.4v-12.7c0-0.1,0.1-0.3,0.2-0.4
				c0.1-0.1,0.2-0.2,0.4-0.2h1.4c0.1,0,0.3,0.1,0.4,0.2s0.2,0.2,0.2,0.4v4.1c0.8-0.8,1.7-1.2,2.7-1.2c1.4,0,2.5,0.4,3.1,1.3
				c0.6,0.8,1,1.9,1,3.3v5.2C-224.8,306.1-224.9,306.3-225,306.4z"/>
			<path id="XMLID_308_" class="st0" d="M-215.8,296.9c0.7,0.4,1.2,1,1.6,1.8c0.4,0.8,0.6,1.6,0.6,2.5v0.9c0,0.1-0.1,0.3-0.2,0.4
				c-0.1,0.1-0.2,0.2-0.4,0.2h-6.3c0,0.6,0.2,1,0.6,1.3c0.4,0.3,0.9,0.5,1.5,0.5c0.7,0,1.2-0.1,1.6-0.4c0.1-0.1,0.3-0.2,0.3-0.2
				c0.1,0,0.2-0.1,0.4-0.1h1.5c0.1,0,0.3,0,0.4,0.1s0.2,0.2,0.2,0.3c0,0.3-0.2,0.6-0.5,1s-0.8,0.8-1.5,1.1s-1.4,0.5-2.3,0.5
				c-0.9,0-1.7-0.2-2.4-0.7s-1.2-1.1-1.6-1.8c-0.4-0.8-0.6-1.7-0.6-2.7c0-1,0.2-1.9,0.6-2.7s0.9-1.4,1.6-1.9
				c0.7-0.5,1.5-0.7,2.4-0.7S-216.5,296.4-215.8,296.9z M-216.1,300.3c-0.1-1.2-0.8-1.8-2.1-1.8c-0.7,0-1.2,0.2-1.5,0.5
				c-0.4,0.4-0.6,0.8-0.6,1.2H-216.1z"/>
			<path id="XMLID_306_" class="st0" d="M-208.6,299.3c-0.3,0.3-0.5,0.9-0.5,1.7v5.1c0,0.1-0.1,0.3-0.2,0.4s-0.2,0.2-0.4,0.2h-1.4
				c-0.1,0-0.3-0.1-0.4-0.2c-0.1-0.1-0.2-0.2-0.2-0.4v-9.1c0-0.1,0.1-0.3,0.2-0.4c0.1-0.1,0.2-0.2,0.4-0.2h1.4
				c0.1,0,0.3,0.1,0.4,0.2c0.1,0.1,0.2,0.2,0.2,0.4v0.4c0.3-0.3,0.7-0.6,1.1-0.7c0.4-0.2,0.9-0.2,1.4-0.2h0.8c0.1,0,0.3,0.1,0.4,0.2
				c0.1,0.1,0.2,0.2,0.2,0.4v1.3c0,0.1-0.1,0.3-0.2,0.4c-0.1,0.1-0.2,0.2-0.4,0.2h-1.2C-207.7,298.7-208.2,298.9-208.6,299.3z"/>
			<path id="XMLID_303_" class="st0" d="M-197.2,296.9c0.7,0.4,1.2,1,1.6,1.8c0.4,0.8,0.6,1.6,0.6,2.5v0.9c0,0.1-0.1,0.3-0.2,0.4
				c-0.1,0.1-0.2,0.2-0.4,0.2h-6.3c0,0.6,0.2,1,0.6,1.3c0.4,0.3,0.9,0.5,1.5,0.5c0.7,0,1.2-0.1,1.6-0.4c0.1-0.1,0.3-0.2,0.3-0.2
				c0.1,0,0.2-0.1,0.4-0.1h1.5c0.1,0,0.3,0,0.4,0.1s0.2,0.2,0.2,0.3c0,0.3-0.2,0.6-0.5,1s-0.8,0.8-1.5,1.1s-1.4,0.5-2.3,0.5
				c-0.9,0-1.7-0.2-2.4-0.7s-1.2-1.1-1.6-1.8c-0.4-0.8-0.6-1.7-0.6-2.7c0-1,0.2-1.9,0.6-2.7s0.9-1.4,1.6-1.9
				c0.7-0.5,1.5-0.7,2.4-0.7S-197.9,296.4-197.2,296.9z M-197.5,300.3c-0.1-1.2-0.8-1.8-2.1-1.8c-0.7,0-1.2,0.2-1.5,0.5
				c-0.4,0.4-0.6,0.8-0.6,1.2H-197.5z"/>
			<path id="XMLID_301_" class="st0" d="M-192.9,296.6c0.1-0.1,0.2-0.2,0.4-0.2h1.4c0.1,0,0.3,0.1,0.4,0.2c0.1,0.1,0.2,0.2,0.2,0.4
				v4.9c0,0.8,0.2,1.4,0.5,1.9c0.3,0.4,0.9,0.7,1.6,0.7c0.7,0,1.2-0.2,1.5-0.7c0.4-0.5,0.5-1.1,0.5-1.9v-4.9c0-0.1,0-0.3,0.2-0.4
				c0.1-0.1,0.2-0.2,0.4-0.2h1.4c0.1,0,0.3,0.1,0.4,0.2c0.1,0.1,0.2,0.2,0.2,0.4v9.1c0,0.1-0.1,0.3-0.2,0.4
				c-0.1,0.1-0.2,0.2-0.4,0.2h-1.4c-0.1,0-0.3-0.1-0.4-0.2c-0.1-0.1-0.2-0.2-0.2-0.4v-0.4c-0.7,0.8-1.6,1.2-2.6,1.2
				c-1.4,0-2.4-0.4-3-1.3c-0.6-0.8-0.9-1.9-0.9-3.3v-5.2C-193,296.8-193,296.7-192.9,296.6z"/>
			<path id="XMLID_299_" class="st0" d="M-177.9,296.5c0.4-0.2,0.9-0.3,1.3-0.3c1.5,0,2.5,0.6,3.1,1.7c0.3-0.5,0.8-0.9,1.3-1.2
				c0.6-0.3,1.1-0.4,1.7-0.4c1.3,0,2.3,0.4,2.9,1.3c0.6,0.8,0.9,1.9,0.9,3.3v5.2c0,0.1-0.1,0.3-0.2,0.4s-0.2,0.2-0.4,0.2h-1.4
				c-0.1,0-0.3-0.1-0.4-0.2s-0.2-0.2-0.2-0.4v-5.1c0-0.8-0.2-1.4-0.5-1.8c-0.3-0.4-0.8-0.6-1.4-0.6c-0.5,0-1,0.2-1.3,0.5
				c-0.3,0.4-0.5,0.9-0.5,1.7v5.2c0,0.1-0.1,0.3-0.2,0.4c-0.1,0.1-0.2,0.2-0.4,0.2h-1.4c-0.1,0-0.3-0.1-0.4-0.2
				c-0.1-0.1-0.2-0.2-0.2-0.4v-5.1c0-0.8-0.2-1.4-0.5-1.8s-0.8-0.6-1.4-0.6c-0.6,0-1,0.2-1.3,0.6c-0.3,0.4-0.5,1-0.5,1.8v5.1
				c0,0.1-0.1,0.3-0.2,0.4s-0.2,0.2-0.4,0.2h-1.4c-0.1,0-0.3-0.1-0.4-0.2c-0.1-0.1-0.2-0.2-0.2-0.4v-9.1c0-0.1,0.1-0.3,0.2-0.4
				c0.1-0.1,0.2-0.2,0.4-0.2h1.4c0.1,0,0.3,0.1,0.4,0.2c0.1,0.1,0.2,0.2,0.2,0.4v0.4C-178.6,297-178.3,296.7-177.9,296.5z"/>
			<path id="XMLID_297_" class="st0" d="M-148.9,293.1c0.1,0.1,0.2,0.2,0.2,0.4V306c0,0.1-0.1,0.3-0.2,0.4c-0.1,0.1-0.2,0.2-0.4,0.2
				h-1.5c-0.1,0-0.3-0.1-0.4-0.2s-0.2-0.2-0.2-0.4v-5.1h-5.7v5.1c0,0.1-0.1,0.3-0.2,0.4c-0.1,0.1-0.2,0.2-0.4,0.2h-1.5
				c-0.1,0-0.3,0-0.4-0.1s-0.2-0.2-0.2-0.4v-12.6c0-0.1,0.1-0.3,0.2-0.4s0.2-0.2,0.4-0.2h1.5c0.1,0,0.3,0.1,0.4,0.2
				c0.1,0.1,0.2,0.2,0.2,0.4v5h5.7v-5c0-0.1,0.1-0.3,0.2-0.4s0.2-0.2,0.4-0.2h1.5C-149.2,292.9-149,293-148.9,293.1z"/>
			<path id="XMLID_294_" class="st0" d="M-138.9,297.3c0.8,0.7,1.1,1.7,1.1,3v5.7c0,0.1-0.1,0.3-0.2,0.4c-0.1,0.1-0.2,0.2-0.4,0.2
				h-1.4c-0.1,0-0.3-0.1-0.4-0.2c-0.1-0.1-0.2-0.2-0.2-0.4v-0.6c-0.3,0.4-0.7,0.7-1.2,1s-1.1,0.4-1.8,0.4c-1.1,0-1.9-0.3-2.5-0.8
				c-0.6-0.6-0.9-1.3-0.9-2.2c0-0.9,0.3-1.6,0.9-2.1c0.6-0.5,1.4-0.9,2.5-1.1l3.1-0.5c0-0.5-0.2-0.9-0.5-1.1
				c-0.3-0.2-0.8-0.4-1.3-0.4c-0.3,0-0.5,0-0.7,0.1c-0.2,0.1-0.4,0.2-0.5,0.4c-0.2,0.2-0.4,0.3-0.6,0.3h-1.8c-0.1,0-0.2,0-0.3-0.1
				c-0.1-0.1-0.1-0.2-0.1-0.3c0.1-0.4,0.3-0.8,0.6-1.2s0.8-0.8,1.4-1c0.6-0.3,1.3-0.4,2.1-0.4C-140.7,296.2-139.6,296.6-138.9,297.3
				z M-140.2,302l-2.6,0.5c-0.5,0.1-0.9,0.2-1.1,0.4c-0.2,0.2-0.3,0.4-0.3,0.7c0,0.3,0.1,0.5,0.4,0.6c0.3,0.1,0.6,0.2,1,0.2
				c0.6,0,1-0.1,1.4-0.3c0.4-0.2,0.7-0.5,0.9-0.8c0.2-0.3,0.3-0.7,0.3-1.1V302z"/>
			<path id="XMLID_292_" class="st0" d="M-132.3,299.3c-0.3,0.3-0.5,0.9-0.5,1.7v5.1c0,0.1-0.1,0.3-0.2,0.4s-0.2,0.2-0.4,0.2h-1.4
				c-0.1,0-0.3-0.1-0.4-0.2c-0.1-0.1-0.2-0.2-0.2-0.4v-9.1c0-0.1,0.1-0.3,0.2-0.4c0.1-0.1,0.2-0.2,0.4-0.2h1.4
				c0.1,0,0.3,0.1,0.4,0.2c0.1,0.1,0.2,0.2,0.2,0.4v0.4c0.3-0.3,0.7-0.6,1.1-0.7c0.4-0.2,0.9-0.2,1.4-0.2h0.8c0.1,0,0.3,0.1,0.4,0.2
				c0.1,0.1,0.2,0.2,0.2,0.4v1.3c0,0.1-0.1,0.3-0.2,0.4c-0.1,0.1-0.2,0.2-0.4,0.2h-1.2C-131.4,298.7-131.9,298.9-132.3,299.3z"/>
			<path id="XMLID_290_" class="st0" d="M-123.8,296.5c0.4-0.2,0.9-0.3,1.3-0.3c1.5,0,2.5,0.6,3.1,1.7c0.3-0.5,0.8-0.9,1.3-1.2
				c0.6-0.3,1.1-0.4,1.7-0.4c1.3,0,2.3,0.4,2.9,1.3c0.6,0.8,0.9,1.9,0.9,3.3v5.2c0,0.1-0.1,0.3-0.2,0.4s-0.2,0.2-0.4,0.2h-1.4
				c-0.1,0-0.3-0.1-0.4-0.2s-0.2-0.2-0.2-0.4v-5.1c0-0.8-0.2-1.4-0.5-1.8c-0.3-0.4-0.8-0.6-1.4-0.6c-0.5,0-1,0.2-1.3,0.5
				c-0.3,0.4-0.5,0.9-0.5,1.7v5.2c0,0.1-0.1,0.3-0.2,0.4c-0.1,0.1-0.2,0.2-0.4,0.2h-1.4c-0.1,0-0.3-0.1-0.4-0.2
				c-0.1-0.1-0.2-0.2-0.2-0.4v-5.1c0-0.8-0.2-1.4-0.5-1.8s-0.8-0.6-1.4-0.6c-0.6,0-1,0.2-1.3,0.6c-0.3,0.4-0.5,1-0.5,1.8v5.1
				c0,0.1-0.1,0.3-0.2,0.4s-0.2,0.2-0.4,0.2h-1.4c-0.1,0-0.3-0.1-0.4-0.2c-0.1-0.1-0.2-0.2-0.2-0.4v-9.1c0-0.1,0.1-0.3,0.2-0.4
				c0.1-0.1,0.2-0.2,0.4-0.2h1.4c0.1,0,0.3,0.1,0.4,0.2c0.1,0.1,0.2,0.2,0.2,0.4v0.4C-124.6,297-124.2,296.7-123.8,296.5z"/>
			<path id="XMLID_287_" class="st0" d="M-100.9,301.5c0,0.3,0,0.7,0,1c-0.1,0.8-0.3,1.5-0.7,2.2c-0.4,0.6-1,1.2-1.7,1.5
				c-0.7,0.4-1.5,0.6-2.4,0.6c-0.9,0-1.7-0.2-2.4-0.6c-0.7-0.4-1.2-0.9-1.7-1.5c-0.4-0.6-0.6-1.4-0.7-2.2c0-0.2,0-0.5,0-1
				c0-0.5,0-0.8,0-1c0.1-0.8,0.3-1.5,0.7-2.2c0.4-0.6,1-1.2,1.7-1.5c0.7-0.4,1.5-0.6,2.4-0.6c0.9,0,1.7,0.2,2.4,0.6
				c0.7,0.4,1.2,0.9,1.7,1.5c0.4,0.6,0.6,1.4,0.7,2.2C-100.9,300.8-100.9,301.1-100.9,301.5z M-107.2,299c-0.4,0.3-0.7,0.8-0.7,1.6
				c0,0.1,0,0.4,0,0.9c0,0.5,0,0.7,0,0.9c0.1,0.7,0.3,1.3,0.7,1.6c0.4,0.3,0.9,0.5,1.5,0.5s1.1-0.2,1.5-0.5c0.4-0.3,0.7-0.8,0.7-1.6
				c0-0.3,0-0.6,0-0.9c0-0.3,0-0.6,0-0.9c-0.1-0.7-0.3-1.3-0.7-1.6c-0.4-0.3-0.9-0.5-1.5-0.5S-106.8,298.7-107.2,299z"/>
			<path id="XMLID_285_" class="st0" d="M-89.7,306.4c-0.1,0.1-0.2,0.2-0.4,0.2h-1.4c-0.1,0-0.3-0.1-0.4-0.2
				c-0.1-0.1-0.2-0.2-0.2-0.4v-4.9c0-0.8-0.2-1.4-0.5-1.9s-0.9-0.7-1.6-0.7c-0.7,0-1.2,0.2-1.6,0.7c-0.4,0.5-0.6,1.1-0.6,1.9v4.9
				c0,0.1-0.1,0.3-0.2,0.4s-0.2,0.2-0.4,0.2h-1.4c-0.1,0-0.3-0.1-0.4-0.2c-0.1-0.1-0.2-0.2-0.2-0.4v-9.1c0-0.1,0.1-0.3,0.2-0.4
				c0.1-0.1,0.2-0.2,0.4-0.2h1.4c0.1,0,0.3,0.1,0.4,0.2c0.1,0.1,0.2,0.2,0.2,0.4v0.4c0.8-0.8,1.7-1.2,2.7-1.2c1.4,0,2.5,0.4,3.1,1.3
				c0.6,0.8,1,1.9,1,3.3v5.2C-89.6,306.1-89.6,306.3-89.7,306.4z"/>
			<path id="XMLID_283_" class="st0" d="M-88.1,297.1c0,0,0-0.1,0-0.1c0-0.1,0.1-0.3,0.2-0.4c0.1-0.1,0.2-0.2,0.4-0.2h1.4
				c0.1,0,0.3,0,0.4,0.1c0.1,0.1,0.2,0.2,0.2,0.3l2.5,6l2.5-6c0-0.1,0.1-0.2,0.2-0.3c0.1-0.1,0.2-0.1,0.4-0.1h1.4
				c0.1,0,0.3,0.1,0.4,0.2c0.1,0.1,0.2,0.2,0.2,0.4c0,0.1,0,0.1,0,0.1l-5.3,12.7c0,0.1-0.1,0.2-0.2,0.3s-0.2,0.1-0.4,0.1h-1.4
				c-0.1,0-0.3-0.1-0.4-0.2c-0.1-0.1-0.2-0.2-0.2-0.4c0-0.1,0-0.1,0-0.1l1.5-3.6L-88.1,297.1z"/>
		</g>
	</g>
	<g id="XMLID_155_">
		<rect id="XMLID_161_" x="-278" y="294.1" class="st0" width="15.2" height="2.2"/>
		<rect id="XMLID_160_" x="-271.5" y="291.9" class="st0" width="2.3" height="16.6"/>
		<rect id="XMLID_159_" x="-268.3" y="291.9" class="st0" width="2.3" height="13"/>
		<rect id="XMLID_158_" x="-274.8" y="291.9" class="st0" width="2.3" height="13"/>
		<rect id="XMLID_157_" x="-265" y="291.9" class="st0" width="2.3" height="8.3"/>
		<rect id="XMLID_156_" x="-278" y="291.9" class="st0" width="2.3" height="8.3"/>
	</g>
</g>
</svg>
